<?xml version="1.0" standalone="no"?><!DOCTYPE svg PUBLIC "-//W3C//DTD SVG 1.1//EN" "http://www.w3.org/Graphics/SVG/1.1/DTD/svg11.dtd"><svg t="1563956219441" class="icon" viewBox="0 0 1024 1024" version="1.1" xmlns="http://www.w3.org/2000/svg" p-id="6054" xmlns:xlink="http://www.w3.org/1999/xlink" width="200" height="200"><defs><style type="text/css"></style></defs><path d="M665.6 638.83264c102.4 79.70816 118.10816 178.62656 98.9184 243.79392-15.70816 57.01632-77.96736 95.41632-96.58368 105.8816-33.75104 19.21024-72.15104 29.0816-113.4592 29.0816-151.26528 0-329.89184-134.9632-445.09184-336.2816C13.9264 514.33472-21.52448 335.70816 15.13472 203.63264c19.18976-70.98368 59.33056-125.09184 114.60608-156.50816C167.56736 26.17344 221.67552 14.56128 267.0592 18.04288c79.70816 6.38976 153.6 100.63872 168.1408 215.26528 10.48576 79.70816-5.24288 150.1184-43.04896 193.7408-11.63264 12.8-27.93472 22.1184-45.95712 29.696 9.29792 25.6 22.1184 54.08768 32.5632 72.704 11.65312 19.78368 34.9184 52.36736 50.62656 73.3184 24.43264-13.96736 51.77344-26.76736 76.8-26.76736 50.03264 0 108.21632 22.69184 159.41632 62.83264z m31.41632 225.1776c12.22656-43.6224-0.57344-111.12448-73.3184-168.1408-38.97344-30.26944-82.0224-48.29184-115.77344-48.29184-12.8 0-43.6224 18.61632-54.10816 25.00608-12.8 8.15104-19.78368 12.22656-30.8224 12.22656-20.3776 0-29.0816-10.48576-59.35104-52.36736-6.98368-9.89184-31.41632-43.04896-44.81024-66.90816-18.61632-32.58368-40.1408-85.52448-49.4592-121.0368-2.90816-9.87136-4.64896-33.73056 30.26944-45.3632 29.0816-9.89184 37.80608-15.70816 40.1408-18.0224 23.26528-27.36128 33.75104-80.30208 26.17344-137.91232-12.20608-94.8224-69.2224-150.69184-103.54688-153.6-4.096-0.57344-7.5776-0.57344-11.65312-0.57344-29.0816 0-62.83264 8.13056-85.52448 20.93056-39.56736 22.1184-66.90816 59.94496-81.44896 113.4592-30.84288 112.29184 2.90816 274.6368 87.8592 423.56736 100.6592 176.88576 258.90816 300.2368 383.40608 300.2368 29.0816 0 55.296-7.00416 78.56128-19.80416 26.76736-15.11424 57.01632-40.71424 63.40608-63.40608zM593.44896 0.57344c234.496 0 424.7552 188.5184 425.32864 420.08576 0 123.92448-54.6816 240.29184-149.54496 320.57344-6.38976 5.24288-14.5408 8.15104-22.69184 8.15104-10.4448 0-20.35712-4.64896-27.3408-12.8a35.2256 35.2256 0 0 1 4.096-50.03264 346.7264 346.7264 0 0 0 124.49792-265.89184c0-192.59392-158.84288-349.67552-354.34496-349.67552a355.1232 355.1232 0 0 0-105.30816 15.70816A35.34848 35.34848 0 0 1 467.21024 19.21024a439.1936 439.1936 0 0 1 126.23872-18.6368z" p-id="6055" fill="#88d458"></path></svg>