<?xml version="1.0" standalone="no"?><!DOCTYPE svg PUBLIC "-//W3C//DTD SVG 1.1//EN" "http://www.w3.org/Graphics/SVG/1.1/DTD/svg11.dtd"><svg t="1563959982326" class="icon" viewBox="0 0 1024 1024" version="1.1" xmlns="http://www.w3.org/2000/svg" p-id="6251" xmlns:xlink="http://www.w3.org/1999/xlink" width="200" height="200"><defs><style type="text/css"></style></defs><path d="M593.6 76.8c-22.4-4.8-43.2 9.6-48 32-1.6 11.2 0 22.4 6.4 30.4 6.4 9.6 16 16 25.6 17.6 86.4 17.6 160 68.8 208 140.8 48 73.6 65.6 161.6 48 248-1.6 11.2 0 22.4 6.4 30.4 8 11.2 19.2 17.6 32 19.2 8 0 17.6-1.6 24-6.4 9.6-6.4 16-14.4 17.6-25.6 44.8-224-97.6-441.6-320-486.4z" fill="#88d458" p-id="6252"></path><path d="M664 689.6c-9.6-6.4-19.2-11.2-24-12.8-6.4-1.6-11.2-3.2-17.6-3.2-22.4 0-44.8 11.2-70.4 35.2-12.8 12.8-25.6 28.8-33.6 38.4-3.2 4.8-8 6.4-14.4 8h-1.6c-4.8 0-9.6-1.6-12.8-4.8-51.2-46.4-99.2-104-139.2-168-41.6-64-75.2-132.8-96-198.4-3.2-9.6 1.6-20.8 11.2-24 9.6-4.8 64-27.2 64-27.2h1.6c30.4-16 62.4-32 51.2-88-12.8-52.8-28.8-105.6-46.4-140.8-12.8-27.2-30.4-36.8-44.8-41.6-6.4-1.6-12.8-3.2-20.8-3.2-14.4 0-32 4.8-51.2 12.8-11.2 6.4-131.2 62.4-131.2 206.4 0 32 3.2 196.8 129.6 390.4 73.6 112 152 188.8 252.8 248 25.6 16 51.2 27.2 76.8 35.2 24 8 48 11.2 72 11.2 86.4 0 140.8-49.6 145.6-56 24-22.4 36.8-44.8 36.8-65.6 0-32-25.6-57.6-41.6-73.6-40-41.6-92.8-76.8-96-78.4z" fill="#88d458" p-id="6253"></path><path d="M492.8 411.2c24 4.8 46.4 19.2 59.2 40 14.4 20.8 19.2 46.4 14.4 70.4-1.6 11.2 0 20.8 6.4 30.4 6.4 9.6 14.4 16 25.6 17.6 1.6 0 4.8 0 6.4 1.6 8 0 16-1.6 24-6.4 9.6-6.4 16-16 17.6-25.6 19.2-94.4-41.6-188.8-136-208h-6.4c-20.8-1.6-38.4 12.8-41.6 32-1.6 11.2 0 22.4 6.4 30.4 3.2 9.6 12.8 16 24 17.6z" fill="#88d458" p-id="6254"></path><path d="M534.4 283.2c56 11.2 104 44.8 134.4 91.2 32 46.4 41.6 104 30.4 160-4.8 22.4 9.6 43.2 32 48 11.2 1.6 22.4 0 30.4-6.4 9.6-6.4 16-16 17.6-25.6 16-76.8 0-155.2-41.6-220.8-43.2-65.6-108.8-110.4-185.6-126.4-22.4-4.8-43.2 9.6-48 32-4.8 22.4 8 43.2 30.4 48z" fill="#88d458" p-id="6255"></path></svg>