<?xml version="1.0" standalone="no"?><!DOCTYPE svg PUBLIC "-//W3C//DTD SVG 1.1//EN" "http://www.w3.org/Graphics/SVG/1.1/DTD/svg11.dtd"><svg t="1563955705182" class="icon" viewBox="0 0 1024 1024" version="1.1" xmlns="http://www.w3.org/2000/svg" p-id="1256" xmlns:xlink="http://www.w3.org/1999/xlink" width="200" height="200"><defs><style type="text/css"></style></defs><path d="M73.142857 219.428571C204.8 219.428571 336.457143 160.914286 460.8 43.885714c29.257143-21.942857 73.142857-21.942857 95.085714 0C687.542857 160.914286 819.2 219.428571 950.857143 219.428571c0 424.228571-138.971429 687.542857-409.6 797.257143-14.628571 7.314286-36.571429 7.314286-51.2 0C212.114286 906.971429 73.142857 643.657143 73.142857 219.428571z m438.857143 724.114286c226.742857-87.771429 351.085714-299.885714 365.714286-658.285714-124.342857-14.628571-248.685714-80.457143-365.714286-190.171429-117.028571 109.714286-241.371429 175.542857-365.714286 190.171429 14.628571 358.4 138.971429 577.828571 365.714286 658.285714z m-14.628571-416.914286L658.285714 365.714286l51.2 51.2-212.114285 219.428571-138.971429-138.971428 51.2-51.2 87.771429 80.457142z" p-id="1257" fill="#f98180"></path><path d="M73.142857 219.428571C204.8 219.428571 336.457143 160.914286 460.8 43.885714c29.257143-21.942857 73.142857-21.942857 95.085714 0C687.542857 160.914286 819.2 219.428571 950.857143 219.428571c0 424.228571-138.971429 687.542857-409.6 797.257143-14.628571 7.314286-36.571429 7.314286-51.2 0C212.114286 906.971429 73.142857 643.657143 73.142857 219.428571z m438.857143 724.114286c226.742857-87.771429 351.085714-299.885714 365.714286-658.285714-124.342857-14.628571-248.685714-80.457143-365.714286-190.171429-117.028571 109.714286-241.371429 175.542857-365.714286 190.171429 14.628571 358.4 138.971429 577.828571 365.714286 658.285714z m-14.628571-416.914286L658.285714 365.714286l51.2 51.2-212.114285 219.428571-138.971429-138.971428 51.2-51.2 87.771429 80.457142z" p-id="1258" fill="#f98180"></path></svg>