<?xml version="1.0" standalone="no"?><!DOCTYPE svg PUBLIC "-//W3C//DTD SVG 1.1//EN" "http://www.w3.org/Graphics/SVG/1.1/DTD/svg11.dtd"><svg t="1563956052496" class="icon" viewBox="0 0 1024 1024" version="1.1" xmlns="http://www.w3.org/2000/svg" p-id="2929" xmlns:xlink="http://www.w3.org/1999/xlink" width="200" height="200"><defs><style type="text/css"></style></defs><path d="M977.28 59.92c-11.12-12.016-30.32-15.456-44.464-16.24l-2.816-0.16L652.32 80.864 420.256 312.88a29.056 29.056 0 0 0-7.408-1.04H246.496l-120 125.424c-17.984 20.752-23.952 39.392-17.744 55.312 6.336 16.528 23.424 26.032 42.208 23.904h104.304l69.232 60.896 116.432 109.504 0.464-0.16 50.128 47.408-4.496 126.816 0.096 1.312c0.624 12.336 2.4 45.184 30.432 49.536 1.776 0.304 3.504 0.4 5.216 0.4 14.432 0 26.336-9.152 33.904-17.184l141.216-147.008v-151.04c0-2.432-0.352-4.8-0.928-7.024l262.208-244.352 32.608-246.144 0.304-3.888a53.824 53.824 0 0 0-14.8-35.632zM189.36 457.216l82.416-86.112h112.176l-51.936 133.984-54.432-47.856-88.224-0.016z m358.448 361.44l3.872-109.216-47.344-44.72 134.288-46.848v106.256l-90.816 94.528z m355.376-502l-250.56 233.568-197.312 68.88-76.16-71.664 69.376-179.04L680.032 136.928l251.472-33.824-28.32 213.552z m-508.72 425.6a29.6 29.6 0 1 1-42.224 41.552l-130.784-132.88a29.616 29.616 0 1 1 42.24-41.584l130.768 132.912z m-206.8 19.056L72.144 873.6a29.392 29.392 0 0 1-20.64 8.368 29.632 29.632 0 0 1-20.656-50.88l115.52-112.304a29.616 29.616 0 1 1 41.296 42.528zM288 810.288a29.616 29.616 0 0 1-0.592 41.872l-117.888 114.624c-5.744 5.6-13.2 8.4-20.64 8.4a29.632 29.632 0 0 1-20.672-50.88l117.872-114.624a29.616 29.616 0 0 1 41.92 0.608z" p-id="2930" fill="#a6c4f6"></path></svg>